HIERARCHY
ROOT root
{
	OFFSET 0.000000 0.000000 0.000000
	CHANNELS 6 Xposition Yposition Zposition Zrotation Yrotation Xrotation
	JOINT lhip
	{
		OFFSET 0.058581 -0.082280 -0.017664
		CHANNELS 3 Zrotation Yrotation Xrotation
		JOINT lknee
		{
			OFFSET 0.043451 -0.386469 0.008037
			CHANNELS 3 Zrotation Yrotation Xrotation
			JOINT lankle
			{
				OFFSET -0.014790 -0.426874 -0.037428
				CHANNELS 3 Zrotation Yrotation Xrotation
				JOINT ltoe
				{
					OFFSET 0.041054 -0.060286 0.122042
					CHANNELS 3 Zrotation Yrotation Xrotation
					End Site
					{
						OFFSET 0.000000 0.000000 0.000000
					}
				}
			}
		}
	}
	JOINT rhip
	{
		OFFSET -0.060310 -0.090513 -0.013543
		CHANNELS 3 Zrotation Yrotation Xrotation
		JOINT rknee
		{
			OFFSET -0.043257 -0.383688 -0.004843
			CHANNELS 3 Zrotation Yrotation Xrotation
			JOINT rankle
			{
				OFFSET 0.019056 -0.420046 -0.034562
				CHANNELS 3 Zrotation Yrotation Xrotation
				JOINT rtoe
				{
					OFFSET -0.034840 -0.062106 0.130323
					CHANNELS 3 Zrotation Yrotation Xrotation
					End Site
					{
						OFFSET 0.000000 0.000000 0.000000
					}
				}
			}
		}
	}
	JOINT lowerback
	{
		OFFSET 0.004439 0.124404 -0.038385
		CHANNELS 3 Zrotation Yrotation Xrotation
		JOINT upperback
		{
			OFFSET 0.004488 0.137956 0.026820
			CHANNELS 3 Zrotation Yrotation Xrotation
			JOINT chest
			{
				OFFSET -0.002265 0.056032 0.002855
				CHANNELS 3 Zrotation Yrotation Xrotation
				JOINT lowerneck
				{
					OFFSET -0.013390 0.211636 -0.033468
					CHANNELS 3 Zrotation Yrotation Xrotation
					JOINT upperneck
					{
						OFFSET 0.010113 0.088937 0.050410
						CHANNELS 3 Zrotation Yrotation Xrotation
						End Site
						{
							OFFSET 0.000000 0.000000 0.000000
						}
					}
				}
				JOINT lclavicle
				{
					OFFSET 0.071702 0.114000 -0.018898
					CHANNELS 3 Zrotation Yrotation Xrotation
					JOINT lshoulder
					{
						OFFSET 0.122921 0.045205 -0.019046
						CHANNELS 3 Zrotation Yrotation Xrotation
						JOINT lelbow
						{
							OFFSET 0.255332 -0.015649 -0.022946
							CHANNELS 3 Zrotation Yrotation Xrotation
							JOINT lwrist
							{
								OFFSET 0.265709 0.012698 -0.007375
								CHANNELS 3 Zrotation Yrotation Xrotation
								End Site
								{
									OFFSET 0.000000 0.000000 0.000000
								}
							}
						}
					}
				}
				JOINT rclavicle
				{
					OFFSET -0.082954 0.112472 -0.023707
					CHANNELS 3 Zrotation Yrotation Xrotation
					JOINT rshoulder
					{
						OFFSET -0.113228 0.046853 -0.008472
						CHANNELS 3 Zrotation Yrotation Xrotation
						JOINT relbow
						{
							OFFSET -0.260127 -0.014369 -0.031269
							CHANNELS 3 Zrotation Yrotation Xrotation
							JOINT rwrist
							{
								OFFSET -0.269108 0.006794 -0.006027
								CHANNELS 3 Zrotation Yrotation Xrotation
								End Site
								{
									OFFSET 0.000000 0.000000 0.000000
								}
							}
						}
					}
				}
			}
		}
	}
}
MOTION
Frames: 13
Frame Time: 0.033333
0.218940 0.690915 1.299445 -86.900548 4.293065 84.997592 0.936514 -2.404325 5.852258 -3.036119 -12.539283 10.813916 2.528572 11.500450 -32.943332 0.000000 -0.000000 0.000000 -1.782408 4.631365 -39.685335 -2.454495 -13.247639 37.468908 10.386347 -6.712323 -11.793085 0.000000 -0.000000 0.000000 -2.173702 -4.995370 22.669939 2.891338 -1.092492 2.029017 1.748472 -2.771387 4.647903 3.216494 4.743945 8.090904 2.202857 -5.395298 12.119158 -21.409964 1.587668 0.604659 -63.919115 -14.581277 12.276763 16.863753 -46.536090 4.286177 -10.206283 -13.158121 0.129605 23.666041 -4.733931 1.775625 64.473164 -7.513997 4.469481 -21.358802 12.648792 -8.681494 10.372188 1.294376 0.470368 
0.193061 0.693051 1.298648 -86.142979 4.712678 84.951563 1.961517 -1.736475 8.044077 -3.221458 -13.342821 10.339999 2.509549 10.987989 -33.525363 0.000000 -0.000000 0.000000 -1.533352 4.151221 -40.954925 -1.214319 -12.179227 32.790790 10.257519 -5.427999 -6.105268 0.000000 -0.000000 0.000000 -1.847176 -5.569560 22.423855 3.051573 -1.381570 2.035651 1.846629 -3.075034 5.073596 3.032813 4.502631 8.062933 2.599949 -5.462932 12.046133 -21.334120 1.284830 0.758984 -63.475431 -15.761902 12.046198 16.495645 -48.004337 4.972661 -9.897252 -14.032072 0.977608 23.654705 -5.156322 2.105044 65.149627 -8.158944 3.797506 -21.160819 10.910655 -8.459906 10.724496 1.241706 0.843913 
0.165443 0.695054 1.297254 -84.972564 4.819369 84.582714 2.501292 -1.556154 10.577631 -3.116916 -14.355042 10.103068 1.981838 10.524087 -33.775050 0.000000 -0.000000 0.000000 -1.479090 3.801806 -40.354267 -1.130969 -13.500290 28.877373 9.927498 -6.250335 -3.112093 0.000000 -0.000000 0.000000 -1.734933 -6.127728 22.358279 3.124559 -1.671266 2.612494 2.034018 -3.284570 4.923448 2.619255 4.094210 8.402946 3.154419 -5.434160 11.962906 -21.144044 1.066463 0.651045 -63.445923 -16.567685 12.478014 16.863725 -48.626067 4.417410 -12.011808 -13.310481 0.602106 23.619407 -5.558461 2.228741 66.000670 -9.035488 3.583340 -21.291191 9.468380 -8.801700 12.406506 0.328718 1.717202 
0.136812 0.697469 1.296923 -83.833299 4.746897 84.429408 3.009240 -1.608130 12.763008 -3.272992 -15.427984 10.286353 1.618644 10.210273 -33.399035 0.000000 -0.000000 0.000000 -1.324927 3.397155 -39.681246 -1.122308 -13.837467 29.763477 7.855068 -7.206034 1.885674 0.000000 -0.000000 0.000000 -1.590522 -6.410085 21.611908 3.312389 -1.991959 3.513624 2.123958 -3.583329 4.809408 2.084707 3.349982 8.869264 3.433917 -5.057088 12.056558 -21.159330 0.350690 0.811277 -63.404995 -16.816505 12.155512 16.893999 -48.317989 4.477148 -12.264376 -13.220726 1.108343 23.607382 -5.560210 2.362742 66.684906 -9.702278 3.153700 -21.170383 8.208175 -8.539428 13.479682 -0.087331 1.957086 
0.107821 0.700456 1.298186 -82.662451 4.542311 84.468773 3.269606 -1.920383 14.608561 -3.289529 -16.658807 10.823169 0.468558 10.007393 -32.665559 0.000000 -0.000000 0.000000 -1.546071 3.937783 -38.232444 -1.472080 -14.833681 32.498016 6.172950 -8.460930 -6.085737 0.000000 -0.000000 0.000000 -1.514584 -6.802478 20.965560 3.511946 -2.190367 4.101169 1.926936 -3.826284 4.682088 2.639125 3.721151 9.079160 2.835511 -5.922100 12.372378 -21.359902 0.337640 1.118128 -63.303228 -16.978186 12.164038 17.043508 -47.665456 4.535856 -11.985667 -13.310888 1.533889 24.191282 -5.686685 2.221739 66.816384 -10.158686 2.904126 -20.972667 7.510093 -7.577124 13.442621 -0.230563 2.813342 
0.080392 0.704211 1.302195 -82.263728 4.624720 85.225282 3.970072 -1.895355 15.313859 -3.154250 -16.767001 11.728001 -0.461011 8.704909 -30.720199 0.000000 -0.000000 0.000000 -1.196668 5.006433 -38.004111 -2.189559 -15.534484 34.740071 4.592542 -8.886860 -8.900411 0.000000 -0.000000 0.000000 -1.138670 -7.279559 20.241751 3.687511 -1.921706 4.230349 1.865128 -3.723486 4.125218 2.690480 3.589321 9.641360 2.486710 -5.755744 12.402541 -21.872403 0.459374 1.843915 -63.357864 -16.285945 11.488598 17.344589 -46.955775 4.879232 -14.126067 -12.336301 1.517601 24.611707 -5.548307 2.712346 66.633428 -10.043614 2.337111 -21.024470 7.543619 -6.499635 14.833400 -0.360489 2.367606 
0.054259 0.707348 1.309558 -82.645749 4.944407 86.030685 4.208599 -2.664074 15.454657 -3.186614 -16.676938 13.426187 -1.695962 8.769505 -27.796471 0.000000 -0.000000 0.000000 -0.862184 7.068589 -37.754531 -2.321557 -15.680213 36.370301 4.126353 -9.846081 -11.072198 0.000000 -0.000000 0.000000 -0.552186 -7.948020 20.073745 3.769857 -1.269251 3.981126 1.834495 -3.417771 3.510290 2.355843 3.042403 10.240676 2.256707 -4.889530 12.028190 -22.539194 0.637569 2.442605 -63.625971 -14.936943 11.107906 18.456997 -45.566374 3.419529 -14.408629 -11.773441 2.068937 24.570267 -4.713112 3.268145 66.266207 -9.355748 2.320024 -20.621638 7.879042 -6.385390 15.038254 -0.190737 2.256142 
0.027490 0.710576 1.319603 -82.954793 4.988045 86.635893 4.568538 -2.593449 15.593816 -3.235274 -16.541528 15.137903 -2.893050 7.741370 -23.414708 0.000000 -0.000000 0.000000 -0.223888 7.477249 -36.024315 -1.654478 -15.339652 36.396001 3.391902 -9.475245 -12.281064 0.000000 -0.000000 0.000000 -0.005897 -8.273420 19.955691 3.688156 -1.224170 3.755003 1.726316 -3.218614 3.061518 2.036677 2.908093 10.827453 2.277223 -4.404478 11.766261 -23.005545 1.034240 2.394573 -63.827914 -13.162435 10.386298 18.208479 -43.182962 3.033225 -14.459469 -11.417815 1.348834 24.752573 -4.061031 3.594004 65.286331 -8.151411 2.302438 -20.194711 9.616655 -6.015211 13.510593 0.443993 2.398616 
0.001735 0.714077 1.329828 -83.360585 4.746589 87.052999 4.711654 -2.606030 14.968254 -3.624585 -15.513534 17.879328 -4.501263 6.158019 -18.097139 0.000000 -0.000000 0.000000 0.606824 7.110337 -33.548396 -1.354565 -15.397933 35.122798 2.642229 -8.484298 -13.811766 0.000000 -0.000000 0.000000 0.168689 -7.169133 18.574116 4.082554 -1.500344 6.246559 1.793807 -3.428106 1.882179 2.361320 3.200037 10.415157 1.642028 -4.967223 11.909837 -23.039611 0.327213 2.561475 -64.568182 -12.052696 9.945558 18.635038 -39.628890 1.705367 -16.195735 -10.667221 1.068501 24.851104 -3.259712 3.241428 64.144756 -6.654379 2.506799 -20.018237 12.110242 -5.604488 14.735955 0.891981 1.075771 
-0.023161 0.717844 1.341032 -84.235387 4.496183 87.456220 4.824441 -2.308141 13.256880 -4.123141 -13.767298 22.268703 -6.730894 4.205763 -12.480490 0.000000 -0.000000 0.000000 1.675208 7.256999 -31.073310 -1.212559 -14.660424 33.391268 2.211133 -7.810525 -14.668767 0.000000 -0.000000 0.000000 0.336634 -6.516653 18.528467 3.994027 -1.493689 6.012402 1.701210 -3.112670 1.336153 2.307799 3.108595 10.773400 1.607116 -5.104097 11.978630 -23.107298 0.477137 2.722877 -64.756938 -10.140975 9.300452 18.165125 -36.971361 2.108093 -17.835200 -9.659098 1.264680 25.290503 -2.323217 3.324345 62.802203 -4.902411 2.494183 -19.743676 14.432272 -5.521225 13.857101 1.593408 0.604337 
-0.046881 0.720922 1.350796 -85.500528 3.916945 87.555195 4.074916 -2.917371 10.270943 -5.442294 -11.562535 29.236762 -8.230766 4.210216 -7.688571 0.000000 -0.000000 0.000000 2.214386 7.784218 -28.537214 -1.151093 -13.998662 31.859677 1.580531 -7.408799 -15.698991 0.000000 -0.000000 0.000000 0.099640 -5.363880 18.306265 3.971801 -1.553209 6.024338 1.482507 -2.591848 1.194055 2.587034 3.510308 10.719046 1.083433 -5.475484 12.196904 -22.799324 0.569346 3.099725 -65.044902 -8.472664 8.912802 17.563166 -34.552717 2.941164 -18.178877 -9.241407 1.714611 25.397898 -1.308142 3.417055 61.977335 -2.575863 3.240450 -19.970690 17.036479 -5.220872 11.949571 1.855855 -0.521410 
-0.069562 0.723939 1.360500 -86.300772 3.639124 87.140690 3.843299 -3.479902 6.487053 -6.504467 -8.884411 37.704263 -9.269933 3.713551 -4.355327 0.000000 -0.000000 0.000000 3.170969 7.637012 -25.107655 -0.860283 -12.937931 29.571250 0.768167 -7.095686 -16.664493 0.000000 -0.000000 0.000000 0.457400 -4.331035 18.417886 3.890241 -1.699509 6.387379 1.311138 -2.137722 0.628896 1.643813 2.752152 11.033140 1.026836 -4.815901 11.922819 -23.309869 -0.007270 3.338483 -64.358010 -6.221640 8.142064 16.775591 -32.807287 3.573145 -18.116302 -8.946860 2.138401 25.584546 0.826821 3.376622 60.965874 -1.147829 3.532362 -20.620976 20.207380 -6.011271 10.498300 2.152784 -1.080261 
-0.092774 0.726267 1.369199 -87.884265 3.136059 85.977293 3.392931 -3.598496 3.663526 -6.503314 -5.134607 44.600965 -10.073420 4.999217 -4.895517 0.000000 -0.000000 0.000000 4.058201 7.216276 -20.863164 -0.786685 -11.626527 27.529489 0.548409 -5.901173 -17.566025 0.000000 -0.000000 0.000000 0.854094 -2.948270 19.057477 3.474586 -1.640067 7.165878 1.155610 -2.243200 -0.266509 0.471793 2.297585 11.079910 0.756402 -3.837780 12.031042 -24.145353 0.845750 2.225990 -63.250573 -3.289462 6.462838 15.425929 -32.315231 5.000780 -20.070535 -8.047799 2.807129 25.235245 2.393630 3.135906 60.059514 1.515002 4.033096 -20.306744 22.925044 -5.612830 9.277975 2.638613 -0.775547 
